<svg xmlns="http://www.w3.org/2000/svg" width="862" height="422" viewBox="0 0 862 422">
<rect width="862" height="422" fill="#1a1a19"/>
<style>text{font-family:"Segoe UI",Inter,Arial,sans-serif;fill:#ffffff}.title{font-size:22px;font-weight:700}.sub{font-size:12px;fill:#c3c2b7}.muted{font-size:11px;fill:#898781}.stat-label{font-size:12px;fill:#c3c2b7;font-weight:600}.stat-value{font-size:28px;font-weight:700}.axis{font-size:12px;fill:#898781}.grid{stroke:#2c2c2a;stroke-width:1}.legend{font-size:12px;fill:#c3c2b7}.name{font-size:14px;font-weight:700}.year{font-size:20px;font-weight:700}</style>
<text x="217.0" y="30" text-anchor="middle" class="year">2023</text>
<rect x="92" y="50" width="246" height="60" rx="6" fill="#199e70" stroke="#2c2c2a" stroke-width="1"/>
<text x="104" y="74" class="name" fill="#1a1a19">Kazakh Image Captioning</text>
<text x="104" y="94" class="name" fill="#1a1a19">(ExpansionNet v2)</text>
<rect x="92" y="114" width="246" height="60" rx="6" fill="#1a1a19" stroke="#2c2c2a" stroke-width="1"/>
<rect x="92" y="178" width="246" height="52" rx="6" fill="#1a1a19" stroke="#2c2c2a" stroke-width="1"/>
<rect x="92" y="234" width="246" height="52" rx="6" fill="#1a1a19" stroke="#2c2c2a" stroke-width="1"/>
<rect x="92" y="290" width="246" height="52" rx="6" fill="#1a1a19" stroke="#2c2c2a" stroke-width="1"/>
<rect x="92" y="346" width="246" height="52" rx="6" fill="#1a1a19" stroke="#2c2c2a" stroke-width="1"/>
<text x="467.0" y="30" text-anchor="middle" class="year">2025</text>
<rect x="342" y="50" width="246" height="60" rx="6" fill="#1a1a19" stroke="#2c2c2a" stroke-width="1"/>
<rect x="342" y="114" width="246" height="60" rx="6" fill="#1a1a19" stroke="#2c2c2a" stroke-width="1"/>
<rect x="342" y="178" width="246" height="52" rx="6" fill="#1a1a19" stroke="#2c2c2a" stroke-width="1"/>
<rect x="342" y="234" width="246" height="52" rx="6" fill="#1a1a19" stroke="#2c2c2a" stroke-width="1"/>
<rect x="342" y="290" width="246" height="52" rx="6" fill="#199e70" stroke="#2c2c2a" stroke-width="1"/>
<text x="354" y="314" class="name" fill="#1a1a19">Qolda</text>
<rect x="342" y="346" width="246" height="52" rx="6" fill="#199e70" stroke="#2c2c2a" stroke-width="1"/>
<text x="354" y="370" class="name" fill="#1a1a19">HordeVision</text>
<text x="717.0" y="30" text-anchor="middle" class="year">2026</text>
<rect x="592" y="50" width="246" height="60" rx="6" fill="#1a1a19" stroke="#2c2c2a" stroke-width="1"/>
<rect x="592" y="114" width="246" height="60" rx="6" fill="#199e70" stroke="#2c2c2a" stroke-width="1"/>
<text x="604" y="138" class="name" fill="#1a1a19">Qolda-AVL</text>
<text x="604" y="158" class="name" fill="#1a1a19">Beynele</text>
<rect x="592" y="178" width="246" height="52" rx="6" fill="#199e70" stroke="#2c2c2a" stroke-width="1"/>
<text x="604" y="202" class="name" fill="#1a1a19">Kazakh TrOCR (fine-tuned)</text>
<rect x="592" y="234" width="246" height="52" rx="6" fill="#199e70" stroke="#2c2c2a" stroke-width="1"/>
<text x="604" y="258" class="name" fill="#1a1a19">TurkicOCR-SVTRv2-B</text>
<rect x="592" y="290" width="246" height="52" rx="6" fill="#1a1a19" stroke="#2c2c2a" stroke-width="1"/>
<rect x="592" y="346" width="246" height="52" rx="6" fill="#1a1a19" stroke="#2c2c2a" stroke-width="1"/>
<text x="78" y="87.0" text-anchor="end" class="axis">Feb</text>
<text x="78" y="151.0" text-anchor="end" class="axis">Apr</text>
<text x="78" y="211.0" text-anchor="end" class="axis">May</text>
<text x="78" y="267.0" text-anchor="end" class="axis">Jul</text>
<text x="78" y="323.0" text-anchor="end" class="axis">Nov</text>
<text x="78" y="379.0" text-anchor="end" class="axis">Dec</text>
</svg>
