<svg xmlns="http://www.w3.org/2000/svg" width="830" height="330" viewBox="0 0 830 330">
<rect width="830" height="330" fill="#1a1a19"/>
<style>text{font-family:"Segoe UI",Inter,Arial,sans-serif;fill:#ffffff}.title{font-size:22px;font-weight:700}.sub{font-size:12px;fill:#c3c2b7}.muted{font-size:11px;fill:#898781}.axis{font-size:12px;fill:#898781}.grid{stroke:#2c2c2a;stroke-width:1}.legend{font-size:12px;fill:#c3c2b7}.endlabel{font-size:12px;font-weight:700}</style>
<line x1="50" y1="290.0" x2="680" y2="290.0" class="grid"/>
<text x="40" y="294.0" text-anchor="end" class="axis">0</text>
<line x1="50" y1="222.5925925925926" x2="680" y2="222.5925925925926" class="grid"/>
<text x="40" y="226.5925925925926" text-anchor="end" class="axis">14</text>
<line x1="50" y1="160.0" x2="680" y2="160.0" class="grid"/>
<text x="40" y="164.0" text-anchor="end" class="axis">27</text>
<line x1="50" y1="97.40740740740742" x2="680" y2="97.40740740740742" class="grid"/>
<text x="40" y="101.40740740740742" text-anchor="end" class="axis">40</text>
<line x1="50" y1="30.0" x2="680" y2="30.0" class="grid"/>
<text x="40" y="34.0" text-anchor="end" class="axis">54</text>
<text x="50.0" y="312" text-anchor="middle" class="axis">2018</text>
<text x="128.75" y="312" text-anchor="middle" class="axis">2019</text>
<text x="207.5" y="312" text-anchor="middle" class="axis">2020</text>
<text x="286.25" y="312" text-anchor="middle" class="axis">2021</text>
<text x="365.0" y="312" text-anchor="middle" class="axis">2022</text>
<text x="443.75" y="312" text-anchor="middle" class="axis">2023</text>
<text x="522.5" y="312" text-anchor="middle" class="axis">2024</text>
<text x="601.25" y="312" text-anchor="middle" class="axis">2025</text>
<text x="680.0" y="312" text-anchor="middle" class="axis">2026</text>
<polyline points="50.0,285.18518518518516 128.75,285.18518518518516 207.5,285.18518518518516 286.25,285.18518518518516 365.0,280.3703703703704 443.75,246.66666666666669 522.5,203.33333333333334 601.25,135.92592592592592 680.0,30.0" fill="none" stroke="#3987e5" stroke-width="2" stroke-linejoin="round" stroke-linecap="round"/>
<circle cx="680.0" cy="30.0" r="4" fill="#3987e5" stroke="#1a1a19" stroke-width="2"/>
<text x="690.0" y="34.0" class="endlabel" fill="#3987e5">Text/NLP (54)</text>
<polyline points="50.0,290.0 128.75,290.0 207.5,285.18518518518516 286.25,270.74074074074076 365.0,265.9259259259259 443.75,246.66666666666669 522.5,237.03703703703704 601.25,217.77777777777777 680.0,145.55555555555554" fill="none" stroke="#d95926" stroke-width="2" stroke-linejoin="round" stroke-linecap="round"/>
<circle cx="680.0" cy="145.55555555555554" r="4" fill="#d95926" stroke="#1a1a19" stroke-width="2"/>
<text x="690.0" y="149.55555555555554" class="endlabel" fill="#d95926">Speech (30)</text>
<polyline points="50.0,290.0 128.75,290.0 207.5,290.0 286.25,290.0 365.0,290.0 443.75,285.18518518518516 522.5,285.18518518518516 601.25,275.55555555555554 680.0,256.2962962962963" fill="none" stroke="#199e70" stroke-width="2" stroke-linejoin="round" stroke-linecap="round"/>
<circle cx="680.0" cy="256.2962962962963" r="4" fill="#199e70" stroke="#1a1a19" stroke-width="2"/>
<text x="690.0" y="260.2962962962963" class="endlabel" fill="#199e70">Vision (7)</text>
</svg>
