<svg xmlns="http://www.w3.org/2000/svg" width="868" height="516" viewBox="0 0 868 516">
<rect width="868" height="516" fill="#fcfcfb"/>
<style>text{font-family:"Segoe UI",Inter,Arial,sans-serif;fill:#0b0b0b}.title{font-size:22px;font-weight:700}.sub{font-size:12px;fill:#52514e}.muted{font-size:11px;fill:#898781}.axis{font-size:12px;fill:#898781}.grid{stroke:#e1e0d9;stroke-width:1}.legend{font-size:12px;fill:#52514e}.count{font-size:10px;font-weight:700}.axis-strong{font-size:12px;font-weight:700;fill:#52514e}</style>
<text x="86.0" y="20" text-anchor="middle" class="axis-strong">Jan</text>
<text x="152.0" y="20" text-anchor="middle" class="axis-strong">Feb</text>
<text x="218.0" y="20" text-anchor="middle" class="axis-strong">Mar</text>
<text x="284.0" y="20" text-anchor="middle" class="axis-strong">Apr</text>
<text x="350.0" y="20" text-anchor="middle" class="axis-strong">May</text>
<text x="416.0" y="20" text-anchor="middle" class="axis-strong">Jun</text>
<text x="482.0" y="20" text-anchor="middle" class="axis-strong">Jul</text>
<text x="548.0" y="20" text-anchor="middle" class="axis-strong">Aug</text>
<text x="614.0" y="20" text-anchor="middle" class="axis-strong">Sep</text>
<text x="680.0" y="20" text-anchor="middle" class="axis-strong">Oct</text>
<text x="746.0" y="20" text-anchor="middle" class="axis-strong">Nov</text>
<text x="812.0" y="20" text-anchor="middle" class="axis-strong">Dec</text>
<text x="46" y="47.0" text-anchor="end" class="axis-strong">2014</text>
<rect x="56" y="30" width="60" height="26" rx="5" fill="#f3f2ee" stroke="#e1e0d9" stroke-width="1"/>
<rect x="122" y="30" width="60" height="26" rx="5" fill="#f3f2ee" stroke="#e1e0d9" stroke-width="1"/>
<rect x="188" y="30" width="60" height="26" rx="5" fill="#f3f2ee" stroke="#e1e0d9" stroke-width="1"/>
<rect x="254" y="30" width="60" height="26" rx="5" fill="#f3f2ee" stroke="#e1e0d9" stroke-width="1"/>
<rect x="320" y="30" width="60" height="26" rx="5" fill="#c6dbef"/>
<rect x="386" y="30" width="60" height="26" rx="5" fill="#f3f2ee" stroke="#e1e0d9" stroke-width="1"/>
<rect x="452" y="30" width="60" height="26" rx="5" fill="#f3f2ee" stroke="#e1e0d9" stroke-width="1"/>
<rect x="518" y="30" width="60" height="26" rx="5" fill="#f3f2ee" stroke="#e1e0d9" stroke-width="1"/>
<rect x="584" y="30" width="60" height="26" rx="5" fill="#f3f2ee" stroke="#e1e0d9" stroke-width="1"/>
<rect x="650" y="30" width="60" height="26" rx="5" fill="#f3f2ee" stroke="#e1e0d9" stroke-width="1"/>
<rect x="716" y="30" width="60" height="26" rx="5" fill="#f3f2ee" stroke="#e1e0d9" stroke-width="1"/>
<rect x="782" y="30" width="60" height="26" rx="5" fill="#f3f2ee" stroke="#e1e0d9" stroke-width="1"/>
<text x="46" y="79.0" text-anchor="end" class="axis-strong">2015</text>
<rect x="56" y="62" width="60" height="26" rx="5" fill="#f3f2ee" stroke="#e1e0d9" stroke-width="1"/>
<rect x="122" y="62" width="60" height="26" rx="5" fill="#f3f2ee" stroke="#e1e0d9" stroke-width="1"/>
<rect x="188" y="62" width="60" height="26" rx="5" fill="#f3f2ee" stroke="#e1e0d9" stroke-width="1"/>
<rect x="254" y="62" width="60" height="26" rx="5" fill="#f3f2ee" stroke="#e1e0d9" stroke-width="1"/>
<rect x="320" y="62" width="60" height="26" rx="5" fill="#f3f2ee" stroke="#e1e0d9" stroke-width="1"/>
<rect x="386" y="62" width="60" height="26" rx="5" fill="#f3f2ee" stroke="#e1e0d9" stroke-width="1"/>
<rect x="452" y="62" width="60" height="26" rx="5" fill="#f3f2ee" stroke="#e1e0d9" stroke-width="1"/>
<rect x="518" y="62" width="60" height="26" rx="5" fill="#f3f2ee" stroke="#e1e0d9" stroke-width="1"/>
<rect x="584" y="62" width="60" height="26" rx="5" fill="#f3f2ee" stroke="#e1e0d9" stroke-width="1"/>
<rect x="650" y="62" width="60" height="26" rx="5" fill="#f3f2ee" stroke="#e1e0d9" stroke-width="1"/>
<rect x="716" y="62" width="60" height="26" rx="5" fill="#f3f2ee" stroke="#e1e0d9" stroke-width="1"/>
<rect x="782" y="62" width="60" height="26" rx="5" fill="#f3f2ee" stroke="#e1e0d9" stroke-width="1"/>
<text x="46" y="111.0" text-anchor="end" class="axis-strong">2016</text>
<rect x="56" y="94" width="60" height="26" rx="5" fill="#f3f2ee" stroke="#e1e0d9" stroke-width="1"/>
<rect x="122" y="94" width="60" height="26" rx="5" fill="#f3f2ee" stroke="#e1e0d9" stroke-width="1"/>
<rect x="188" y="94" width="60" height="26" rx="5" fill="#f3f2ee" stroke="#e1e0d9" stroke-width="1"/>
<rect x="254" y="94" width="60" height="26" rx="5" fill="#f3f2ee" stroke="#e1e0d9" stroke-width="1"/>
<rect x="320" y="94" width="60" height="26" rx="5" fill="#f3f2ee" stroke="#e1e0d9" stroke-width="1"/>
<rect x="386" y="94" width="60" height="26" rx="5" fill="#f3f2ee" stroke="#e1e0d9" stroke-width="1"/>
<rect x="452" y="94" width="60" height="26" rx="5" fill="#f3f2ee" stroke="#e1e0d9" stroke-width="1"/>
<rect x="518" y="94" width="60" height="26" rx="5" fill="#f3f2ee" stroke="#e1e0d9" stroke-width="1"/>
<rect x="584" y="94" width="60" height="26" rx="5" fill="#f3f2ee" stroke="#e1e0d9" stroke-width="1"/>
<rect x="650" y="94" width="60" height="26" rx="5" fill="#f3f2ee" stroke="#e1e0d9" stroke-width="1"/>
<rect x="716" y="94" width="60" height="26" rx="5" fill="#f3f2ee" stroke="#e1e0d9" stroke-width="1"/>
<rect x="782" y="94" width="60" height="26" rx="5" fill="#f3f2ee" stroke="#e1e0d9" stroke-width="1"/>
<text x="46" y="143.0" text-anchor="end" class="axis-strong">2017</text>
<rect x="56" y="126" width="60" height="26" rx="5" fill="#f3f2ee" stroke="#e1e0d9" stroke-width="1"/>
<rect x="122" y="126" width="60" height="26" rx="5" fill="#f3f2ee" stroke="#e1e0d9" stroke-width="1"/>
<rect x="188" y="126" width="60" height="26" rx="5" fill="#f3f2ee" stroke="#e1e0d9" stroke-width="1"/>
<rect x="254" y="126" width="60" height="26" rx="5" fill="#f3f2ee" stroke="#e1e0d9" stroke-width="1"/>
<rect x="320" y="126" width="60" height="26" rx="5" fill="#f3f2ee" stroke="#e1e0d9" stroke-width="1"/>
<rect x="386" y="126" width="60" height="26" rx="5" fill="#f3f2ee" stroke="#e1e0d9" stroke-width="1"/>
<rect x="452" y="126" width="60" height="26" rx="5" fill="#f3f2ee" stroke="#e1e0d9" stroke-width="1"/>
<rect x="518" y="126" width="60" height="26" rx="5" fill="#f3f2ee" stroke="#e1e0d9" stroke-width="1"/>
<rect x="584" y="126" width="60" height="26" rx="5" fill="#f3f2ee" stroke="#e1e0d9" stroke-width="1"/>
<rect x="650" y="126" width="60" height="26" rx="5" fill="#f3f2ee" stroke="#e1e0d9" stroke-width="1"/>
<rect x="716" y="126" width="60" height="26" rx="5" fill="#f3f2ee" stroke="#e1e0d9" stroke-width="1"/>
<rect x="782" y="126" width="60" height="26" rx="5" fill="#f3f2ee" stroke="#e1e0d9" stroke-width="1"/>
<text x="46" y="175.0" text-anchor="end" class="axis-strong">2018</text>
<rect x="56" y="158" width="60" height="26" rx="5" fill="#f3f2ee" stroke="#e1e0d9" stroke-width="1"/>
<rect x="122" y="158" width="60" height="26" rx="5" fill="#f3f2ee" stroke="#e1e0d9" stroke-width="1"/>
<rect x="188" y="158" width="60" height="26" rx="5" fill="#f3f2ee" stroke="#e1e0d9" stroke-width="1"/>
<rect x="254" y="158" width="60" height="26" rx="5" fill="#f3f2ee" stroke="#e1e0d9" stroke-width="1"/>
<rect x="320" y="158" width="60" height="26" rx="5" fill="#f3f2ee" stroke="#e1e0d9" stroke-width="1"/>
<rect x="386" y="158" width="60" height="26" rx="5" fill="#f3f2ee" stroke="#e1e0d9" stroke-width="1"/>
<rect x="452" y="158" width="60" height="26" rx="5" fill="#f3f2ee" stroke="#e1e0d9" stroke-width="1"/>
<rect x="518" y="158" width="60" height="26" rx="5" fill="#f3f2ee" stroke="#e1e0d9" stroke-width="1"/>
<rect x="584" y="158" width="60" height="26" rx="5" fill="#f3f2ee" stroke="#e1e0d9" stroke-width="1"/>
<rect x="650" y="158" width="60" height="26" rx="5" fill="#f3f2ee" stroke="#e1e0d9" stroke-width="1"/>
<rect x="716" y="158" width="60" height="26" rx="5" fill="#f3f2ee" stroke="#e1e0d9" stroke-width="1"/>
<rect x="782" y="158" width="60" height="26" rx="5" fill="#f3f2ee" stroke="#e1e0d9" stroke-width="1"/>
<text x="46" y="207.0" text-anchor="end" class="axis-strong">2019</text>
<rect x="56" y="190" width="60" height="26" rx="5" fill="#f3f2ee" stroke="#e1e0d9" stroke-width="1"/>
<rect x="122" y="190" width="60" height="26" rx="5" fill="#f3f2ee" stroke="#e1e0d9" stroke-width="1"/>
<rect x="188" y="190" width="60" height="26" rx="5" fill="#f3f2ee" stroke="#e1e0d9" stroke-width="1"/>
<rect x="254" y="190" width="60" height="26" rx="5" fill="#f3f2ee" stroke="#e1e0d9" stroke-width="1"/>
<rect x="320" y="190" width="60" height="26" rx="5" fill="#f3f2ee" stroke="#e1e0d9" stroke-width="1"/>
<rect x="386" y="190" width="60" height="26" rx="5" fill="#f3f2ee" stroke="#e1e0d9" stroke-width="1"/>
<rect x="452" y="190" width="60" height="26" rx="5" fill="#f3f2ee" stroke="#e1e0d9" stroke-width="1"/>
<rect x="518" y="190" width="60" height="26" rx="5" fill="#f3f2ee" stroke="#e1e0d9" stroke-width="1"/>
<rect x="584" y="190" width="60" height="26" rx="5" fill="#f3f2ee" stroke="#e1e0d9" stroke-width="1"/>
<rect x="650" y="190" width="60" height="26" rx="5" fill="#f3f2ee" stroke="#e1e0d9" stroke-width="1"/>
<rect x="716" y="190" width="60" height="26" rx="5" fill="#f3f2ee" stroke="#e1e0d9" stroke-width="1"/>
<rect x="782" y="190" width="60" height="26" rx="5" fill="#f3f2ee" stroke="#e1e0d9" stroke-width="1"/>
<text x="46" y="239.0" text-anchor="end" class="axis-strong">2020</text>
<rect x="56" y="222" width="60" height="26" rx="5" fill="#f3f2ee" stroke="#e1e0d9" stroke-width="1"/>
<rect x="122" y="222" width="60" height="26" rx="5" fill="#f3f2ee" stroke="#e1e0d9" stroke-width="1"/>
<rect x="188" y="222" width="60" height="26" rx="5" fill="#f3f2ee" stroke="#e1e0d9" stroke-width="1"/>
<rect x="254" y="222" width="60" height="26" rx="5" fill="#f3f2ee" stroke="#e1e0d9" stroke-width="1"/>
<rect x="320" y="222" width="60" height="26" rx="5" fill="#f3f2ee" stroke="#e1e0d9" stroke-width="1"/>
<rect x="386" y="222" width="60" height="26" rx="5" fill="#f3f2ee" stroke="#e1e0d9" stroke-width="1"/>
<rect x="452" y="222" width="60" height="26" rx="5" fill="#f3f2ee" stroke="#e1e0d9" stroke-width="1"/>
<rect x="518" y="222" width="60" height="26" rx="5" fill="#f3f2ee" stroke="#e1e0d9" stroke-width="1"/>
<rect x="584" y="222" width="60" height="26" rx="5" fill="#f3f2ee" stroke="#e1e0d9" stroke-width="1"/>
<rect x="650" y="222" width="60" height="26" rx="5" fill="#f3f2ee" stroke="#e1e0d9" stroke-width="1"/>
<rect x="716" y="222" width="60" height="26" rx="5" fill="#f3f2ee" stroke="#e1e0d9" stroke-width="1"/>
<rect x="782" y="222" width="60" height="26" rx="5" fill="#f3f2ee" stroke="#e1e0d9" stroke-width="1"/>
<text x="46" y="271.0" text-anchor="end" class="axis-strong">2021</text>
<rect x="56" y="254" width="60" height="26" rx="5" fill="#f3f2ee" stroke="#e1e0d9" stroke-width="1"/>
<rect x="122" y="254" width="60" height="26" rx="5" fill="#f3f2ee" stroke="#e1e0d9" stroke-width="1"/>
<rect x="188" y="254" width="60" height="26" rx="5" fill="#f3f2ee" stroke="#e1e0d9" stroke-width="1"/>
<rect x="254" y="254" width="60" height="26" rx="5" fill="#f3f2ee" stroke="#e1e0d9" stroke-width="1"/>
<rect x="320" y="254" width="60" height="26" rx="5" fill="#f3f2ee" stroke="#e1e0d9" stroke-width="1"/>
<rect x="386" y="254" width="60" height="26" rx="5" fill="#f3f2ee" stroke="#e1e0d9" stroke-width="1"/>
<rect x="452" y="254" width="60" height="26" rx="5" fill="#f3f2ee" stroke="#e1e0d9" stroke-width="1"/>
<rect x="518" y="254" width="60" height="26" rx="5" fill="#f3f2ee" stroke="#e1e0d9" stroke-width="1"/>
<rect x="584" y="254" width="60" height="26" rx="5" fill="#f3f2ee" stroke="#e1e0d9" stroke-width="1"/>
<rect x="650" y="254" width="60" height="26" rx="5" fill="#f3f2ee" stroke="#e1e0d9" stroke-width="1"/>
<rect x="716" y="254" width="60" height="26" rx="5" fill="#f3f2ee" stroke="#e1e0d9" stroke-width="1"/>
<rect x="782" y="254" width="60" height="26" rx="5" fill="#f3f2ee" stroke="#e1e0d9" stroke-width="1"/>
<text x="46" y="303.0" text-anchor="end" class="axis-strong">2022</text>
<rect x="56" y="286" width="60" height="26" rx="5" fill="#f3f2ee" stroke="#e1e0d9" stroke-width="1"/>
<rect x="122" y="286" width="60" height="26" rx="5" fill="#f3f2ee" stroke="#e1e0d9" stroke-width="1"/>
<rect x="188" y="286" width="60" height="26" rx="5" fill="#f3f2ee" stroke="#e1e0d9" stroke-width="1"/>
<rect x="254" y="286" width="60" height="26" rx="5" fill="#f3f2ee" stroke="#e1e0d9" stroke-width="1"/>
<rect x="320" y="286" width="60" height="26" rx="5" fill="#f3f2ee" stroke="#e1e0d9" stroke-width="1"/>
<rect x="386" y="286" width="60" height="26" rx="5" fill="#f3f2ee" stroke="#e1e0d9" stroke-width="1"/>
<rect x="452" y="286" width="60" height="26" rx="5" fill="#f3f2ee" stroke="#e1e0d9" stroke-width="1"/>
<rect x="518" y="286" width="60" height="26" rx="5" fill="#f3f2ee" stroke="#e1e0d9" stroke-width="1"/>
<rect x="584" y="286" width="60" height="26" rx="5" fill="#c6dbef"/>
<rect x="650" y="286" width="60" height="26" rx="5" fill="#f3f2ee" stroke="#e1e0d9" stroke-width="1"/>
<rect x="716" y="286" width="60" height="26" rx="5" fill="#f3f2ee" stroke="#e1e0d9" stroke-width="1"/>
<rect x="782" y="286" width="60" height="26" rx="5" fill="#f3f2ee" stroke="#e1e0d9" stroke-width="1"/>
<text x="46" y="335.0" text-anchor="end" class="axis-strong">2023</text>
<rect x="56" y="318" width="60" height="26" rx="5" fill="#f3f2ee" stroke="#e1e0d9" stroke-width="1"/>
<rect x="122" y="318" width="60" height="26" rx="5" fill="#f3f2ee" stroke="#e1e0d9" stroke-width="1"/>
<rect x="188" y="318" width="60" height="26" rx="5" fill="#f3f2ee" stroke="#e1e0d9" stroke-width="1"/>
<rect x="254" y="318" width="60" height="26" rx="5" fill="#c6dbef"/>
<rect x="320" y="318" width="60" height="26" rx="5" fill="#9ecae1"/>
<rect x="386" y="318" width="60" height="26" rx="5" fill="#f3f2ee" stroke="#e1e0d9" stroke-width="1"/>
<rect x="452" y="318" width="60" height="26" rx="5" fill="#f3f2ee" stroke="#e1e0d9" stroke-width="1"/>
<rect x="518" y="318" width="60" height="26" rx="5" fill="#c6dbef"/>
<rect x="584" y="318" width="60" height="26" rx="5" fill="#f3f2ee" stroke="#e1e0d9" stroke-width="1"/>
<rect x="650" y="318" width="60" height="26" rx="5" fill="#9ecae1"/>
<rect x="716" y="318" width="60" height="26" rx="5" fill="#f3f2ee" stroke="#e1e0d9" stroke-width="1"/>
<rect x="782" y="318" width="60" height="26" rx="5" fill="#c6dbef"/>
<text x="46" y="367.0" text-anchor="end" class="axis-strong">2024</text>
<rect x="56" y="350" width="60" height="26" rx="5" fill="#f3f2ee" stroke="#e1e0d9" stroke-width="1"/>
<rect x="122" y="350" width="60" height="26" rx="5" fill="#f3f2ee" stroke="#e1e0d9" stroke-width="1"/>
<rect x="188" y="350" width="60" height="26" rx="5" fill="#c6dbef"/>
<rect x="254" y="350" width="60" height="26" rx="5" fill="#c6dbef"/>
<rect x="320" y="350" width="60" height="26" rx="5" fill="#f3f2ee" stroke="#e1e0d9" stroke-width="1"/>
<rect x="386" y="350" width="60" height="26" rx="5" fill="#c6dbef"/>
<rect x="452" y="350" width="60" height="26" rx="5" fill="#c6dbef"/>
<rect x="518" y="350" width="60" height="26" rx="5" fill="#9ecae1"/>
<rect x="584" y="350" width="60" height="26" rx="5" fill="#c6dbef"/>
<rect x="650" y="350" width="60" height="26" rx="5" fill="#c6dbef"/>
<rect x="716" y="350" width="60" height="26" rx="5" fill="#f3f2ee" stroke="#e1e0d9" stroke-width="1"/>
<rect x="782" y="350" width="60" height="26" rx="5" fill="#c6dbef"/>
<text x="46" y="399.0" text-anchor="end" class="axis-strong">2025</text>
<rect x="56" y="382" width="60" height="26" rx="5" fill="#c6dbef"/>
<rect x="122" y="382" width="60" height="26" rx="5" fill="#9ecae1"/>
<rect x="188" y="382" width="60" height="26" rx="5" fill="#6baed6"/>
<rect x="254" y="382" width="60" height="26" rx="5" fill="#6baed6"/>
<rect x="320" y="382" width="60" height="26" rx="5" fill="#c6dbef"/>
<rect x="386" y="382" width="60" height="26" rx="5" fill="#f3f2ee" stroke="#e1e0d9" stroke-width="1"/>
<rect x="452" y="382" width="60" height="26" rx="5" fill="#f3f2ee" stroke="#e1e0d9" stroke-width="1"/>
<rect x="518" y="382" width="60" height="26" rx="5" fill="#f3f2ee" stroke="#e1e0d9" stroke-width="1"/>
<rect x="584" y="382" width="60" height="26" rx="5" fill="#f3f2ee" stroke="#e1e0d9" stroke-width="1"/>
<rect x="650" y="382" width="60" height="26" rx="5" fill="#c6dbef"/>
<rect x="716" y="382" width="60" height="26" rx="5" fill="#9ecae1"/>
<rect x="782" y="382" width="60" height="26" rx="5" fill="#9ecae1"/>
<text x="46" y="431.0" text-anchor="end" class="axis-strong">2026</text>
<rect x="56" y="414" width="60" height="26" rx="5" fill="#08519c"/>
<rect x="122" y="414" width="60" height="26" rx="5" fill="#9ecae1"/>
<rect x="188" y="414" width="60" height="26" rx="5" fill="#c6dbef"/>
<rect x="254" y="414" width="60" height="26" rx="5" fill="#08519c"/>
<rect x="320" y="414" width="60" height="26" rx="5" fill="#9ecae1"/>
<rect x="386" y="414" width="60" height="26" rx="5" fill="#c6dbef"/>
<rect x="452" y="414" width="60" height="26" rx="5" fill="#9ecae1"/>
<rect x="518" y="414" width="60" height="26" rx="5" fill="#9ecae1"/>
<rect x="584" y="414" width="60" height="26" rx="5" fill="#6baed6"/>
<rect x="650" y="414" width="60" height="26" rx="5" fill="#f3f2ee" stroke="#e1e0d9" stroke-width="1"/>
<rect x="716" y="414" width="60" height="26" rx="5" fill="#f3f2ee" stroke="#e1e0d9" stroke-width="1"/>
<rect x="782" y="414" width="60" height="26" rx="5" fill="#f3f2ee" stroke="#e1e0d9" stroke-width="1"/>
<text x="56" y="475" class="legend">Releases/month:</text>
<rect x="147" y="464" width="16" height="16" rx="4" fill="#c6dbef"/>
<text x="155" y="496" text-anchor="middle" class="legend">1</text>
<rect x="171" y="464" width="16" height="16" rx="4" fill="#9ecae1"/>
<text x="179" y="496" text-anchor="middle" class="legend">2</text>
<rect x="195" y="464" width="16" height="16" rx="4" fill="#6baed6"/>
<text x="203" y="496" text-anchor="middle" class="legend">3</text>
<rect x="219" y="464" width="16" height="16" rx="4" fill="#3182bd"/>
<text x="227" y="496" text-anchor="middle" class="legend">4</text>
<rect x="243" y="464" width="16" height="16" rx="4" fill="#08519c"/>
<text x="251" y="496" text-anchor="middle" class="legend">5+</text>
</svg>
